<?xml version="1.0" encoding="UTF-8"?>
<svg version="1.1" xmlns="http://www.w3.org/2000/svg" width="512" height="512">
<path d="M0 0 C0.86847565 -0.0065712 1.73695129 -0.0131424 2.63174438 -0.01991272 C5.51393719 -0.03966834 8.39607781 -0.05131392 11.27832031 -0.0612793 C12.75373165 -0.06739259 12.75373165 -0.06739259 14.25894928 -0.07362938 C19.465925 -0.0945007 24.67287429 -0.1087973 29.87988281 -0.11816406 C35.25799297 -0.12922512 40.63568899 -0.1636186 46.0136528 -0.20333576 C50.14866911 -0.22948564 54.28358656 -0.23785451 58.41867828 -0.24144554 C60.40100142 -0.24631643 62.38332 -0.2579447 64.36556244 -0.27648354 C67.14247895 -0.30083811 69.91832182 -0.29991658 72.6953125 -0.29296875 C73.92059158 -0.31218384 73.92059158 -0.31218384 75.17062378 -0.33178711 C80.41009109 -0.28408137 83.53608222 0.57526064 87.60644531 4.17700195 C88.91439819 6.50668335 88.91439819 6.50668335 89.70947266 9.09643555 C90.02261414 10.07102722 90.33575562 11.0456189 90.65838623 12.04974365 C90.97124573 13.08173889 91.28410522 14.11373413 91.60644531 15.17700195 C92.30287035 17.28144468 93.00168374 19.38509823 93.70263672 21.48803711 C94.45657401 23.81335122 95.20824818 26.13939996 95.95800781 28.46606445 C96.37322687 29.75013877 96.78857995 31.03416976 97.20405579 32.31816101 C98.31733544 35.76094187 99.42775447 39.20463879 100.53739548 42.6485939 C101.23834707 44.82341585 101.94011972 46.9979713 102.64212036 49.17245483 C109.38767429 70.06999533 116.04423233 90.99401356 122.62945557 111.94268799 C128.84969139 131.72224023 135.20540393 151.45542845 141.60644531 171.17700195 C148.38004336 192.04642051 155.08949704 212.93283582 161.66894531 233.86450195 C168.09921674 254.31929917 174.6254199 274.74124808 181.22105026 295.14322281 C181.90944558 297.2726167 182.59757151 299.4020975 183.28567505 301.53158569 C185.36292335 307.95835419 187.44489603 314.38349631 189.5378418 320.80517578 C190.75087482 324.52804718 191.94972482 328.2539513 193.11450195 331.9921875 C195.45830512 339.44258752 198.35969704 346.05892917 202.41894531 352.73950195 C202.9394043 353.62573242 203.45986328 354.51196289 203.99609375 355.42504883 C205.51961831 358.01720228 207.05965601 360.59867867 208.60644531 363.17700195 C209.84404462 365.24239046 211.07931096 367.30867612 212.30053711 369.38378906 C213.28202507 371.05061659 214.27953561 372.70798098 215.27832031 374.36450195 C216.78726174 377.55990733 217.22580919 378.70630759 216.60644531 382.17700195 C214.67845451 384.86863285 212.35561053 387.12787681 210.00097656 389.4465332 C209.32475754 390.12753586 208.64853851 390.80853851 207.951828 391.51017761 C206.51952183 392.94588454 205.08088877 394.37530325 203.63647461 395.79882812 C201.42701846 397.98152657 199.24547185 400.18957848 197.06542969 402.40161133 C195.67054567 403.79319129 194.2741114 405.18321941 192.87597656 406.5715332 C191.89755547 407.56513603 191.89755547 407.56513603 190.89936829 408.57881165 C186.37042156 412.99267891 186.37042156 412.99267891 183.03417969 413.79760742 C179.79949551 412.97072013 177.35077805 411.58377692 174.49316406 409.8527832 C173.91991898 409.50950485 173.34667389 409.1662265 172.75605774 408.81254578 C170.92898742 407.715037 169.11157173 406.6025659 167.29394531 405.48950195 C166.08425624 404.7599948 164.87397456 404.03146939 163.66308594 403.30395508 C158.71382409 400.3207306 153.80310721 397.31085204 149.00097656 394.0949707 C145.96807006 391.94105643 145.96807006 391.94105643 143.6640625 392.40454102 C141.3603013 393.26940818 139.39600852 394.34388165 137.29003906 395.6184082 C136.45335693 396.1158252 135.6166748 396.61324219 134.75463867 397.12573242 C133.86010986 397.65827637 132.96558105 398.19082031 132.04394531 398.73950195 C87.19746067 424.80935041 35.76601463 430.55663996 -14.24511719 417.6105957 C-33.44059549 412.3896285 -53.14599647 405.03524216 -69.33496094 393.2590332 C-71.28573131 391.9741518 -71.28573131 391.9741518 -73.23925781 392.45678711 C-75.66752122 393.26859321 -77.70119235 394.34114973 -79.92089844 395.6184082 C-80.78972656 396.11630859 -81.65855469 396.61420898 -82.55371094 397.12719727 C-83.47023437 397.65925781 -84.38675781 398.19131836 -85.33105469 398.73950195 C-86.73871094 399.54726074 -86.73871094 399.54726074 -88.17480469 400.37133789 C-92.32431316 402.76429721 -96.44961633 405.17948322 -100.49121094 407.7512207 C-101.07717041 408.1236792 -101.66312988 408.4961377 -102.2668457 408.87988281 C-103.78563358 409.8575327 -105.29319114 410.85256799 -106.79980469 411.84887695 C-109.88477529 413.42853058 -110.97349078 413.78434215 -114.39355469 413.17700195 C-117.08562111 411.24970379 -119.34447552 408.92612048 -121.66308594 406.5715332 C-122.34408859 405.89531418 -123.02509125 405.21909515 -123.72673035 404.52238464 C-125.16243727 403.09007847 -126.59185599 401.65144542 -128.01538086 400.20703125 C-130.19807931 397.9975751 -132.40613121 395.81602849 -134.61816406 393.63598633 C-136.00974402 392.24110231 -137.39977215 390.84466804 -138.78808594 389.4465332 C-139.45048782 388.79425247 -140.11288971 388.14197174 -140.79536438 387.46992493 C-145.21305206 382.93705818 -145.21305206 382.93705818 -146.00976562 379.58227539 C-145.20601495 376.44497282 -143.87573193 374.16055091 -142.13964844 371.4230957 C-141.44935547 370.32030273 -140.7590625 369.21750977 -140.04785156 368.08129883 C-139.30937835 366.92540645 -138.57044429 365.76980836 -137.83105469 364.61450195 C-136.4095669 362.36540245 -134.9937433 360.1127857 -133.57714844 357.8605957 C-132.94349365 356.86600342 -132.30983887 355.87141113 -131.65698242 354.84667969 C-130.90066382 353.62459225 -130.14648901 352.40117737 -129.39355469 351.17700195 C-128.8418309 350.29760452 -128.29010712 349.41820709 -127.72166443 348.51216125 C-123.49699582 341.57781262 -120.56953075 334.84830167 -118.18652344 327.1027832 C-117.82405518 325.96645447 -117.46158691 324.83012573 -117.08813477 323.65936279 C-116.10969521 320.58250722 -115.14407549 317.50199712 -114.18413925 314.4193306 C-113.15517101 311.1267038 -112.10893752 307.83956605 -111.06469727 304.55175781 C-109.11864116 298.41601983 -107.18669624 292.27594997 -105.26153278 286.13362789 C-103.1576455 279.4214894 -101.04215588 272.71302988 -98.92480469 266.00512695 C-98.20058094 263.71045593 -97.47637843 261.41577821 -96.75219727 259.12109375 C-96.21582138 257.42163101 -96.21582138 257.42163101 -95.66860962 255.68783569 C-94.56984843 252.20397003 -93.47316655 248.71945457 -92.37670898 245.23486328 C-86.25156866 225.78822081 -79.98047058 206.390518 -73.68635559 186.99809265 C-67.14897306 166.85486122 -60.68184144 146.69254668 -54.33105469 126.48950195 C-47.97329139 106.26964769 -41.52864849 86.07938154 -35.01210403 65.91024399 C-34.3464017 63.84950985 -33.68118582 61.78861927 -33.01608276 59.72769165 C-30.95249478 53.33542716 -28.88138528 46.94579764 -26.79541016 40.56079102 C-25.36105465 36.16970442 -23.94547962 31.77372772 -22.55747509 27.36784554 C-21.57747217 24.26691159 -20.57909276 21.17186757 -19.58496094 18.07543945 C-19.23586166 16.94739899 -18.88676239 15.81935852 -18.52708435 14.65713501 C-16.66871658 8.92864885 -15.22855703 4.89854007 -10.39355469 1.17700195 C-7.14482196 -0.44736441 -3.57074564 0.01163876 0 0 Z M33.60644531 62.17700195 C33.40616226 63.00985214 33.20587921 63.84270233 32.99952698 64.70079041 C30.39903865 75.50771342 27.78744324 86.31192885 25.16894531 97.11450195 C24.95782986 97.98572819 24.7467144 98.85695442 24.52920151 99.75458145 C17.72597571 127.81793347 10.65891317 155.80025095 3.23335075 183.70544624 C2.70316449 185.6986297 2.17421839 187.69213846 1.64556885 189.68572998 C1.00502513 192.09778669 0.36107211 194.50894164 -0.28692627 196.91900635 C-0.56663269 197.97118347 -0.84633911 199.0233606 -1.13452148 200.10742188 C-1.37921677 201.02021408 -1.62391205 201.93300629 -1.87602234 202.87345886 C-2.50315661 205.27134751 -2.50315661 205.27134751 -2.39355469 208.17700195 C22.35644531 208.17700195 47.10644531 208.17700195 72.60644531 208.17700195 C71.3830022 202.0597864 70.14477096 196.06435509 68.56616211 190.04833984 C68.37194105 189.29883214 68.17771999 188.54932444 67.97761345 187.77710438 C67.33954504 185.31727691 66.69759607 182.85847994 66.05566406 180.3996582 C65.5999042 178.64526252 65.14442034 176.89079511 64.68919373 175.13626099 C63.72522337 171.422755 62.75966627 167.70966702 61.79278564 163.99691772 C59.53777088 155.33727031 57.29098837 146.67548603 55.04395294 138.01376534 C54.54628536 136.09552026 54.04851813 134.17730103 53.55065155 132.25910759 C49.2367286 115.63788596 44.96250311 99.00701641 40.73144531 82.36450195 C40.4593222 81.29442902 40.1871991 80.22435608 39.90682983 79.12185669 C38.47101929 73.47416592 37.03740091 67.82592472 35.60644531 62.17700195 C34.94644531 62.17700195 34.28644531 62.17700195 33.60644531 62.17700195 Z M-19.39355469 271.17700195 C-24.44021632 288.82388829 -24.44021632 288.82388829 -29.12011719 306.5559082 C-29.76527858 309.06714864 -30.41113018 311.57821183 -31.05761719 314.08911133 C-32.04932197 317.94967636 -33.03786996 321.81092344 -34.01269531 325.67578125 C-34.97101149 329.47306115 -35.9514603 333.26446359 -36.93261719 337.0559082 C-37.22125641 338.21619034 -37.50989563 339.37647247 -37.80728149 340.57191467 C-38.0879245 341.64501389 -38.3685675 342.7181131 -38.65771484 343.82373047 C-38.89720856 344.7641066 -39.13670227 345.70448273 -39.38345337 346.6733551 C-40.82701351 350.25137716 -42.94887854 352.45466388 -46.39355469 354.17700195 C-47.93024334 354.40168026 -49.47323523 354.58497001 -51.01855469 354.73950195 C-51.83582031 354.82329102 -52.65308594 354.90708008 -53.49511719 354.9934082 C-54.12160156 355.05399414 -54.74808594 355.11458008 -55.39355469 355.17700195 C-24.77084238 380.51799874 16.10255166 388.43576175 54.84619141 384.87963867 C61.21772135 384.09857173 67.40391436 382.81835685 73.60644531 381.17700195 C74.46173828 380.95157715 75.31703125 380.72615234 76.19824219 380.49389648 C93.96053687 375.60162646 111.85644181 367.316469 126.60644531 356.17700195 C126.60644531 355.84700195 126.60644531 355.51700195 126.60644531 355.17700195 C125.87039063 355.16282227 125.13433594 355.14864258 124.37597656 355.1340332 C123.40015625 355.08633789 122.42433594 355.03864258 121.41894531 354.98950195 C120.45601562 354.95469727 119.49308594 354.91989258 118.50097656 354.8840332 C114.52115287 353.91190353 113.21692923 352.33124092 110.60644531 349.17700195 C109.3280139 346.27733294 108.56269717 343.29504971 107.78613281 340.2277832 C107.54200653 339.32111404 107.29788025 338.41444489 107.0463562 337.4803009 C106.21691918 334.38325966 105.41233441 331.28024787 104.60644531 328.17700195 C103.98074275 325.82420594 103.35340366 323.47184467 102.72460938 321.11987305 C100.7046271 313.54047571 98.71668961 305.9530884 96.73144531 298.36450195 C93.20457031 284.90668945 93.20457031 284.90668945 89.60644531 271.17700195 C53.63644531 271.17700195 17.66644531 271.17700195 -19.39355469 271.17700195 Z " fill="#D7374F" transform="translate(220.3935546875,43.822998046875)"/>
<path d="M0 0 C3.17318286 1.20536286 5.9774773 2.59000806 8.90625 4.31005859 C10.58267578 5.28652344 10.58267578 5.28652344 12.29296875 6.28271484 C13.45840121 6.97400667 14.62376538 7.66541364 15.7890625 8.35693359 C16.94613286 9.03353932 18.1036816 9.70932766 19.26171875 10.38427734 C24.06783509 13.19936735 28.81274344 16.02626085 33.421875 19.15380859 C35.83397486 20.66208231 36.64287953 21.10332317 39.5546875 21.14208984 C42.47357052 19.86145408 45.00428008 18.30498906 47.6640625 16.54443359 C52.91756568 13.18914473 58.3011854 10.25570781 63.9140625 7.54443359 C64.63174805 7.18599365 65.34943359 6.82755371 66.08886719 6.45825195 C70.0667693 4.57927819 72.67509435 3.59183365 76.9140625 5.10693359 C77.23578423 10.98424031 76.1239092 15.71027475 74.3515625 21.29443359 C74.0819873 22.15576904 73.81241211 23.01710449 73.53466797 23.90454102 C72.96181441 25.71824864 72.38325258 27.53016212 71.79931641 29.34033203 C70.91917846 32.09094515 70.07841819 34.85169467 69.23828125 37.61474609 C63.96855469 54.37568465 63.96855469 54.37568465 55.9140625 59.10693359 C55.14578125 59.71021484 54.3775 60.31349609 53.5859375 60.93505859 C52.95171875 61.40427734 52.3175 61.87349609 51.6640625 62.35693359 C19.56100411 87.15377869 1.61482229 123.26815706 -4.671875 162.79052734 C-7.2477308 184.927639 -5.26891199 207.25330204 2.02001953 228.26147461 C2.40843018 229.42827759 2.40843018 229.42827759 2.8046875 230.61865234 C3.04219727 231.29371826 3.27970703 231.96878418 3.52441406 232.66430664 C4.62170337 239.54299057 2.12893499 246.19971969 -0.02734375 252.63818359 C-0.31447739 253.51470581 -0.60161102 254.39122803 -0.89744568 255.29431152 C-1.80761655 258.06748767 -2.72784392 260.83720217 -3.6484375 263.60693359 C-4.27085223 265.49733815 -4.89260375 267.3879612 -5.51367188 269.27880859 C-7.03010301 273.89074566 -8.55555645 278.4996077 -10.0859375 283.10693359 C-11.7359375 283.43693359 -13.3859375 283.76693359 -15.0859375 284.10693359 C-27.84265956 266.71140351 -34.85296377 246.09307808 -40.40332031 225.4777832 C-40.74121582 224.30421265 -40.74121582 224.30421265 -41.0859375 223.10693359 C-41.24989014 222.08196777 -41.41384277 221.05700195 -41.58276367 220.00097656 C-43.30918057 216.67712633 -43.75309828 216.53552462 -47.15258789 215.43188477 C-48.9063709 214.97841564 -50.66750461 214.55278974 -52.43359375 214.14990234 C-53.82414223 213.79995964 -53.82414223 213.79995964 -55.24278259 213.44294739 C-58.20593301 212.70242875 -61.17624451 211.99768533 -64.1484375 211.29443359 C-67.12190745 210.56575242 -70.09354574 209.83000302 -73.06480408 209.09236145 C-74.91497309 208.63582755 -76.76681902 208.18602934 -78.62037659 207.74345398 C-79.45471725 207.54266739 -80.28905792 207.3418808 -81.14868164 207.13500977 C-81.88655411 206.95991379 -82.62442657 206.78481781 -83.38465881 206.60441589 C-85.0859375 206.10693359 -85.0859375 206.10693359 -86.0859375 205.10693359 C-86.17905639 203.6027462 -86.20339778 202.09422003 -86.19946289 200.5871582 C-86.19938736 199.62623764 -86.19931183 198.66531708 -86.19923401 197.67527771 C-86.19407272 196.63049759 -86.18891144 195.58571747 -86.18359375 194.50927734 C-86.1821788 193.44528214 -86.18076385 192.38128693 -86.17930603 191.28504944 C-86.17368814 187.87148276 -86.16113261 184.4579806 -86.1484375 181.04443359 C-86.14342481 178.73649183 -86.1388615 176.42854904 -86.13476562 174.12060547 C-86.1237129 168.44935933 -86.10695737 162.77815107 -86.0859375 157.10693359 C-75.95518906 154.27835118 -65.82370474 151.45955196 -55.6484375 148.79443359 C-54.65779297 148.53082031 -53.66714844 148.26720703 -52.64648438 147.99560547 C-51.69966797 147.74746094 -50.75285156 147.49931641 -49.77734375 147.24365234 C-48.94404541 147.02410889 -48.11074707 146.80456543 -47.25219727 146.57836914 C-45.0859375 146.10693359 -45.0859375 146.10693359 -42.0859375 146.10693359 C-41.75722656 144.47111328 -41.75722656 144.47111328 -41.421875 142.80224609 C-38.08294088 126.68393911 -33.23300721 112.05164462 -26.1484375 97.16943359 C-25.41367188 95.62437134 -25.41367188 95.62437134 -24.6640625 94.0480957 C-21.63509374 87.84680164 -18.26874946 82.13460188 -14.30639648 76.47973633 C-12.91231806 74.26150655 -12.91231806 74.26150655 -13.19458008 72.15698242 C-14.38409919 69.42118621 -15.78939978 66.89013227 -17.2890625 64.31005859 C-17.94003906 63.18599609 -18.59101562 62.06193359 -19.26171875 60.90380859 C-19.60283691 60.32050781 -19.94395508 59.73720703 -20.29541016 59.13623047 C-21.32289266 57.3792402 -22.34374061 55.61854182 -23.36328125 53.85693359 C-26.52008087 48.42401323 -29.66765532 43.03518271 -33.26464844 37.87939453 C-34.48837753 35.23840963 -34.65530245 34.01281895 -34.0859375 31.10693359 C-32.16496809 28.40855778 -29.8603221 26.13326104 -27.515625 23.80224609 C-26.84177765 23.11887177 -26.1679303 22.43549744 -25.47366333 21.73141479 C-24.04575561 20.29134695 -22.61131226 18.8577345 -21.17089844 17.43017578 C-18.96871191 15.23966678 -16.80040344 13.01911821 -14.6328125 10.79443359 C-13.24152707 9.3992634 -11.84835829 8.00596825 -10.453125 6.61474609 C-9.80600555 5.94718292 -9.15888611 5.27961975 -8.49215698 4.59182739 C-3.92115629 0.13587551 -3.92115629 0.13587551 0 0 Z " fill="#1A1A1A" transform="translate(92.0859375,90.89306640625)"/>
<path d="M0 0 C2.55103487 1.96258601 4.78622468 4.20200152 7.05078125 6.484375 C8.03899117 7.46328705 8.03899117 7.46328705 9.04716492 8.4619751 C10.43464198 9.84235854 11.81701292 11.2278908 13.19458008 12.61816406 C15.3068131 14.74427573 17.44194116 16.84529068 19.58007812 18.9453125 C20.92593153 20.29021484 22.27038179 21.6365231 23.61328125 22.984375 C24.25380936 23.6116449 24.89433746 24.23891479 25.55427551 24.88519287 C29.84454975 29.2674636 29.84454975 29.2674636 30.55932617 32.63574219 C29.90336751 35.40846313 28.91811787 37.40633599 27.4375 39.84375 C26.89109863 40.75455322 26.34469727 41.66535645 25.78173828 42.60375977 C25.19376465 43.55951904 24.60579102 44.51527832 24 45.5 C23.4107373 46.480896 22.82147461 47.46179199 22.21435547 48.47241211 C19.64196741 52.74060564 17.03410236 56.98033219 14.3203125 61.16015625 C13.94261719 61.74796875 13.56492187 62.33578125 13.17578125 62.94140625 C12.19717209 64.45115645 11.19705436 65.94690473 10.1953125 67.44140625 C8.80687122 69.90678897 8.80687122 69.90678897 9.08984375 72.49609375 C10.18130931 75.49879515 11.66126333 77.84100587 13.4375 80.5 C26.12966712 100.34503054 33.39124541 122.06466833 38 145 C38.6077124 145.09724365 39.2154248 145.1944873 39.84155273 145.29467773 C47.65933666 146.62412522 55.29981017 148.50825254 62.96459961 150.51391602 C65.08910577 151.06945719 67.21530097 151.61814539 69.34179688 152.16601562 C79.71266617 154.85633308 79.71266617 154.85633308 82 156 C82 171.84 82 187.68 82 204 C76.46327531 206.07627176 71.33381051 207.76008656 65.6328125 209.05078125 C64.07261361 209.42255861 62.51272568 209.79564297 60.953125 210.16992188 C58.52631867 210.74823831 56.09876495 211.31841304 53.66503906 211.86694336 C51.29385069 212.40466279 48.93242067 212.97466 46.5703125 213.55078125 C45.4750676 213.78550896 45.4750676 213.78550896 44.35769653 214.02497864 C42.04950428 214.54603563 42.04950428 214.54603563 39 216 C37.47242541 218.82783868 37.47242541 218.82783868 37 222 C36.78520996 222.75619629 36.57041992 223.51239258 36.34912109 224.29150391 C36.06415771 225.37310791 36.06415771 225.37310791 35.7734375 226.4765625 C24.03964956 269.96035044 24.03964956 269.96035044 11 283 C8.375 282.625 8.375 282.625 6 282 C3.96464763 276.03029471 1.95537427 270.05226343 -0.03637695 264.06787109 C-0.71633338 262.0349583 -1.40213952 260.00399203 -2.09399414 257.97509766 C-3.09000648 255.05087999 -4.06446193 252.12020471 -5.03515625 249.1875 C-5.34655045 248.28821777 -5.65794464 247.38893555 -5.97877502 246.46240234 C-8.77879148 237.8707033 -7.39696458 231.71945747 -4.625 223.1875 C7.07017577 184.60146225 1.78285828 142.95766515 -16.75 107.4375 C-27.99560062 86.61381513 -44.13818381 68.66230004 -63.46875 55.10546875 C-68.40279503 51.00137883 -69.99985849 45.57805006 -71.91796875 39.6640625 C-72.18007645 38.86648529 -72.44218414 38.06890808 -72.7122345 37.24716187 C-73.26244905 35.56555854 -73.80939984 33.88288422 -74.35327148 32.19921875 C-75.1837703 29.6365089 -76.03169975 27.08001538 -76.88085938 24.5234375 C-77.41513621 22.88316184 -77.94837395 21.24254729 -78.48046875 19.6015625 C-78.73354294 18.84404694 -78.98661713 18.08653137 -79.24736023 17.30606079 C-80.71897396 12.68440497 -81.25782978 8.85039776 -81 4 C-77.02884966 2.89275295 -75.00086705 3.05304488 -71.3046875 4.84375 C-69.99081055 5.47253052 -69.99081055 5.47253052 -68.65039062 6.11401367 C-67.73451172 6.57138916 -66.81863281 7.02876465 -65.875 7.5 C-64.93591797 7.95544189 -63.99683594 8.41088379 -63.02929688 8.88012695 C-57.06683671 11.81952065 -51.51045843 14.9647782 -46.15625 18.91796875 C-44.04900859 20.1909821 -44.04900859 20.1909821 -41.6328125 19.91796875 C-38.26217919 18.74274794 -35.37759396 17.01665842 -32.375 15.125 C-31.05267251 14.31674364 -29.7297238 13.50950298 -28.40625 12.703125 C-26.11304974 11.29660089 -23.82013665 9.88960994 -21.52734375 8.48242188 C-18.98514495 6.93187467 -16.43134031 5.40209386 -13.875 3.875 C-13.06981934 3.37758301 -12.26463867 2.88016602 -11.43505859 2.36767578 C-10.67016113 1.91376465 -9.90526367 1.45985352 -9.1171875 0.9921875 C-8.44284668 0.58339355 -7.76850586 0.17459961 -7.07373047 -0.24658203 C-4.13600117 -1.31390398 -2.94357985 -1.12965333 0 0 Z " fill="#1A1A1A" transform="translate(424,92)"/>
<path d="M0 0 C3.11138174 3.67379397 5.54337308 7.50394326 7.8203125 11.7265625 C8.16504608 12.35605804 8.50977966 12.98555359 8.86495972 13.63412476 C9.95621368 15.62862626 11.04088936 17.62660825 12.125 19.625 C13.21745892 21.62984748 14.31128961 23.63393301 15.40646362 25.63729858 C16.08500917 26.87947487 16.76178555 28.12261967 17.43655396 29.36685181 C18.86788217 31.99518341 20.33794683 34.50692024 22 37 C22.5378418 39.2331543 22.5378418 39.2331543 22 42 C20.06840096 44.68945225 17.7494917 46.95055336 15.39453125 49.26953125 C14.71831223 49.95053391 14.0420932 50.63153656 13.34538269 51.33317566 C11.91307652 52.76888259 10.47444346 54.1983013 9.0300293 55.62182617 C6.82057315 57.80452462 4.63902654 60.01257653 2.45898438 62.22460938 C1.06410035 63.61618934 -0.33233391 65.00621746 -1.73046875 66.39453125 C-2.38274948 67.05693314 -3.03503021 67.71933502 -3.70707703 68.40180969 C-8.23602375 72.81567695 -8.23602375 72.81567695 -11.57226562 73.62060547 C-14.8069498 72.79371818 -17.25566726 71.40677497 -20.11328125 69.67578125 C-20.68652634 69.3325029 -21.25977142 68.98922455 -21.85038757 68.63554382 C-23.67745789 67.53803504 -25.49487358 66.42556394 -27.3125 65.3125 C-28.52218907 64.58299285 -29.73247075 63.85446744 -30.94335938 63.12695312 C-35.89262122 60.14372865 -40.8033381 57.13385008 -45.60546875 53.91796875 C-48.63837526 51.76405448 -48.63837526 51.76405448 -50.94238281 52.22753906 C-53.24614401 53.09240622 -55.21043679 54.16687969 -57.31640625 55.44140625 C-58.57142944 56.18753174 -58.57142944 56.18753174 -59.85180664 56.94873047 C-60.74633545 57.48127441 -61.64086426 58.01381836 -62.5625 58.5625 C-107.40898464 84.63234846 -158.84043068 90.379638 -208.8515625 77.43359375 C-228.04704081 72.21262655 -247.75244179 64.85824021 -263.94140625 53.08203125 C-265.89217662 51.79714985 -265.89217662 51.79714985 -267.84570312 52.27978516 C-270.27396653 53.09159126 -272.30763766 54.16414778 -274.52734375 55.44140625 C-275.39617187 55.93930664 -276.265 56.43720703 -277.16015625 56.95019531 C-278.07667969 57.48225586 -278.99320313 58.01431641 -279.9375 58.5625 C-280.8759375 59.10100586 -281.814375 59.63951172 -282.78125 60.19433594 C-286.93075847 62.58729526 -291.05606164 65.00248127 -295.09765625 67.57421875 C-295.68361572 67.94667725 -296.2695752 68.31913574 -296.87329102 68.70288086 C-298.39207889 69.68053075 -299.89963645 70.67556604 -301.40625 71.671875 C-304.4912206 73.25152862 -305.57993609 73.60734019 -309 73 C-311.69206642 71.07270184 -313.95092084 68.74911853 -316.26953125 66.39453125 C-316.95053391 65.71831223 -317.63153656 65.0420932 -318.33317566 64.34538269 C-319.76888259 62.91307652 -321.1983013 61.47444346 -322.62182617 60.0300293 C-324.80452462 57.82057315 -327.01257653 55.63902654 -329.22460938 53.45898438 C-330.61618934 52.06410035 -332.00621746 50.66766609 -333.39453125 49.26953125 C-334.05693314 48.61725052 -334.71933502 47.96496979 -335.40180969 47.29292297 C-339.81823791 42.76134853 -339.81823791 42.76134853 -340.6184082 39.40966797 C-339.80708734 36.24830322 -338.45701827 33.93644043 -336.7109375 31.17578125 C-336.01613281 30.06396484 -335.32132812 28.95214844 -334.60546875 27.80664062 C-333.86234419 26.64169415 -333.11885266 25.47698169 -332.375 24.3125 C-331.65390032 23.16797707 -330.93383833 22.02279966 -330.21484375 20.87695312 C-328.81205928 18.64200905 -327.40347792 16.4111405 -325.99121094 14.18212891 C-323.62636799 10.40290343 -321.35613156 6.57352374 -319.11572266 2.71948242 C-318.74753418 2.15205322 -318.3793457 1.58462402 -318 1 C-317.67 1 -317.34 1 -317 1 C-316.84144531 1.60328125 -316.68289063 2.2065625 -316.51953125 2.828125 C-316.28621094 3.62734375 -316.05289063 4.4265625 -315.8125 5.25 C-315.59207031 6.03890625 -315.37164062 6.8278125 -315.14453125 7.640625 C-313.5009016 11.02885814 -312.31864193 12.07998959 -309 14 C-304.74176426 14.50856871 -300.51889383 14.34055474 -296.23828125 14.22265625 C-293.64780128 14.20301454 -291.05730442 14.18550753 -288.46679688 14.16992188 C-284.40722791 14.12942431 -280.34921266 14.06722255 -276.29077148 13.96264648 C-259.5006565 13.58468094 -247.20324633 13.99956347 -233.74797058 24.68077087 C-207.84819598 44.22786016 -167.82532001 47.14304987 -136.80078125 43.33984375 C-131.45084835 42.53504841 -126.22825432 41.38353535 -121 40 C-119.71706055 39.66186279 -119.71706055 39.66186279 -118.40820312 39.31689453 C-103.78994927 35.29058789 -87.03228072 29.16269196 -75.1605835 19.50337219 C-68.39610818 14.25353588 -62.53574674 14.17699056 -54.171875 14.30078125 C-52.17476881 14.29071094 -50.17766256 14.28062585 -48.18056107 14.26966381 C-45.40678324 14.26157828 -42.63344575 14.28030187 -39.85974121 14.29931641 C-34.9886111 14.32975568 -30.11757304 14.33105123 -25.24639893 14.3120575 C-22.65878872 14.30466964 -20.07107602 14.3128917 -17.48358154 14.3384552 C-16.31176331 14.33802719 -15.13994507 14.33759918 -13.93261719 14.3371582 C-12.39115021 14.34764946 -12.39115021 14.34764946 -10.81854248 14.35835266 C-7.50648155 13.93725351 -5.67229229 12.97549422 -3 11 C-1.06604999 8.09907498 -0.69868059 7.10325263 -0.375 3.8125 C-0.25125 2.554375 -0.1275 1.29625 0 0 Z " fill="#1A1A1A" transform="translate(415,384)"/>
</svg>
