<?xml version="1.0" encoding="UTF-8"?>
<!DOCTYPE svg PUBLIC "-//W3C//DTD SVG 1.1//EN" "http://www.w3.org/Graphics/SVG/1.1/DTD/svg11.dtd">
<svg xmlns="http://www.w3.org/2000/svg" version="1.1" width="128px" height="128px" style="shape-rendering:geometricPrecision; text-rendering:geometricPrecision; image-rendering:optimizeQuality; fill-rule:evenodd; clip-rule:evenodd" xmlns:xlink="http://www.w3.org/1999/xlink">
<g><path style="opacity:0.998" fill="#d83850" d="M 82.5,26.5 C 82.4095,29.1522 83.0762,31.4855 84.5,33.5C 84.2627,34.791 84.596,35.791 85.5,36.5C 85.2627,37.791 85.596,38.791 86.5,39.5C 90.5944,54.446 95.2611,69.1126 100.5,83.5C 100.263,84.791 100.596,85.791 101.5,86.5C 101.263,87.791 101.596,88.791 102.5,89.5C 102.263,90.791 102.596,91.791 103.5,92.5C 103.5,93.5 103.5,94.5 103.5,95.5C 103.67,96.8221 103.337,97.9887 102.5,99C 96.5092,99.4995 90.5092,99.6662 84.5,99.5C 82.5891,99.4257 81.4224,98.4257 81,96.5C 79.7854,90.9601 78.2854,85.6268 76.5,80.5C 72.5549,79.1745 68.2216,78.5079 63.5,78.5C 58.9866,78.5009 54.6533,78.8343 50.5,79.5C 48.6064,85.3568 46.7731,91.3568 45,97.5C 44.5831,98.756 43.7498,99.4226 42.5,99.5C 36.8236,99.6661 31.1569,99.4994 25.5,99C 24.6195,98.2917 23.9528,97.4584 23.5,96.5C 23.5,95.5 23.5,94.5 23.5,93.5C 24.404,92.791 24.7373,91.791 24.5,90.5C 25.404,89.791 25.7373,88.791 25.5,87.5C 26.404,86.791 26.7373,85.791 26.5,84.5C 27.404,83.791 27.7373,82.791 27.5,81.5C 32.7389,67.1126 37.4056,52.446 41.5,37.5C 42.404,36.791 42.7373,35.791 42.5,34.5C 43.404,33.791 43.7373,32.791 43.5,31.5C 44.404,30.791 44.7373,29.791 44.5,28.5C 45.404,27.791 45.7373,26.791 45.5,25.5C 46.4345,24.4324 46.7678,23.099 46.5,21.5C 47.933,18.7177 49.0997,15.7177 50,12.5C 50.8333,11.6667 51.6667,10.8333 52.5,10C 59.8333,9.33333 67.1667,9.33333 74.5,10C 75.4162,10.3742 76.2496,10.8742 77,11.5C 78.5678,16.7138 80.4011,21.7138 82.5,26.5 Z M 64.5,34.5 C 63.8333,33.8333 63.1667,33.1667 62.5,32.5C 62.3433,31.1266 62.51,29.7932 63,28.5C 64.128,30.3453 64.628,32.3453 64.5,34.5 Z M 62.5,37.5 C 63.1667,37.8333 63.8333,38.1667 64.5,38.5C 65.1909,43.5977 66.3575,48.5977 68,53.5C 68.4828,52.552 68.6495,51.552 68.5,50.5C 69.4345,51.5676 69.7678,52.901 69.5,54.5C 68.1667,55.5 68.1667,56.5 69.5,57.5C 65.9707,59.4228 61.9707,60.0894 57.5,59.5C 57.5,58.5 57.5,57.5 57.5,56.5C 58.8333,55.5 58.8333,54.5 57.5,53.5C 57.2322,51.901 57.5655,50.5676 58.5,49.5C 58.3505,50.552 58.5172,51.552 59,52.5C 60.6425,47.5977 61.8091,42.5977 62.5,37.5 Z M 56.5,56.5 C 56.5,57.8333 56.5,59.1667 56.5,60.5C 61.1667,60.5 65.8333,60.5 70.5,60.5C 70.5,59.5 70.5,58.5 70.5,57.5C 71.4345,58.5676 71.7678,59.901 71.5,61.5C 65.8236,61.6661 60.1569,61.4994 54.5,61C 55.0989,59.3775 55.7656,57.8775 56.5,56.5 Z M 50.5,79.5 C 54.6533,78.8343 58.9866,78.5009 63.5,78.5C 68.2216,78.5079 72.5549,79.1745 76.5,80.5C 67.9177,79.5301 59.2511,79.1968 50.5,79.5 Z"/></g>
<g><path style="opacity:0.008" fill="#aa264f" d="M 46.5,21.5 C 45.4265,20.7494 45.2599,19.7494 46,18.5C 46.4828,19.448 46.6495,20.448 46.5,21.5 Z"/></g>
<g><path style="opacity:0.006" fill="#000000" d="M 39.5,21.5 C 39.8966,20.475 40.5632,20.3083 41.5,21C 40.9056,21.4643 40.2389,21.631 39.5,21.5 Z"/></g>
<g><path style="opacity:0.006" fill="#000000" d="M 85.5,21.5 C 85.8966,20.475 86.5632,20.3083 87.5,21C 86.9056,21.4643 86.2389,21.631 85.5,21.5 Z"/></g>
<g><path style="opacity:0.91" fill="#191919" d="M 42.5,25.5 C 41.596,26.209 41.2627,27.209 41.5,28.5C 40.3962,31.8104 38.7295,34.8104 36.5,37.5C 35.8333,37.5 35.5,37.8333 35.5,38.5C 26.3108,45.8809 21.6441,55.5475 21.5,67.5C 21.61,72.7169 22.61,77.7169 24.5,82.5C 23.596,83.209 23.2627,84.209 23.5,85.5C 22.596,86.209 22.2627,87.209 22.5,88.5C 21.596,89.209 21.2627,90.209 21.5,91.5C 20.5326,92.8062 19.1993,93.4729 17.5,93.5C 17.6716,92.5084 17.3382,91.8417 16.5,91.5C 15.4031,88.3135 14.0697,85.3135 12.5,82.5C 12.8678,79.9442 12.0345,77.9442 10,76.5C 6.90626,75.4345 3.73959,74.7678 0.5,74.5C 0.5,69.8333 0.5,65.1667 0.5,60.5C 4.26296,60.1428 7.92963,59.3095 11.5,58C 10.5,57.6667 9.5,57.3333 8.5,57C 9.96749,55.9025 10.8008,54.4025 11,52.5C 11.3333,53.8333 11.6667,55.1667 12,56.5C 13.4898,50.8576 15.6565,45.5242 18.5,40.5C 16.8735,37.1896 15.2068,33.8563 13.5,30.5C 15.9836,27.5157 18.6503,24.6824 21.5,22C 25.2148,23.1102 28.7148,24.9435 32,27.5C 35.0619,24.8855 38.5619,23.2188 42.5,22.5C 42.5,23.5 42.5,24.5 42.5,25.5 Z"/></g>
<g><path style="opacity:0.91" fill="#191919" d="M 113.5,31.5 C 112.662,31.8417 112.328,32.5084 112.5,33.5C 111.662,33.8417 111.328,34.5084 111.5,35.5C 110.833,35.5 110.5,35.8333 110.5,36.5C 109.335,37.4961 108.668,38.8295 108.5,40.5C 109.591,43.0215 110.925,45.3549 112.5,47.5C 113.317,50.4786 114.151,53.4786 115,56.5C 115.333,55.1667 115.667,53.8333 116,52.5C 116.199,54.4025 117.033,55.9025 118.5,57C 117.5,57.3333 116.5,57.6667 115.5,58C 117.74,58.977 120.073,59.477 122.5,59.5C 123.531,60.2485 124.698,60.9152 126,61.5C 126.499,65.8206 126.666,70.1539 126.5,74.5C 124.901,74.2322 123.568,74.5655 122.5,75.5C 117.146,74.9459 114.479,77.2792 114.5,82.5C 113.596,83.209 113.263,84.209 113.5,85.5C 112.662,85.8417 112.328,86.5084 112.5,87.5C 111.662,87.8417 111.328,88.5084 111.5,89.5C 110.662,89.8417 110.328,90.5084 110.5,91.5C 109.662,91.8417 109.328,92.5084 109.5,93.5C 108.5,93.5 107.5,93.5 106.5,93.5C 106.672,92.5084 106.338,91.8417 105.5,91.5C 105.737,90.209 105.404,89.209 104.5,88.5C 104.737,87.209 104.404,86.209 103.5,85.5C 103.737,84.209 103.404,83.209 102.5,82.5C 107.027,70.4881 106.194,58.8214 100,47.5C 97.6658,44 94.8325,41 91.5,38.5C 91.5,37.8333 91.1667,37.5 90.5,37.5C 90.1583,36.6618 89.4916,36.3284 88.5,36.5C 87.871,33.6027 86.871,30.936 85.5,28.5C 85.7373,27.209 85.404,26.209 84.5,25.5C 84.5,24.5 84.5,23.5 84.5,22.5C 86.2161,22.6287 87.8828,22.962 89.5,23.5C 91.1513,24.9701 92.9847,26.3034 95,27.5C 98.0823,25.375 101.249,23.375 104.5,21.5C 108.257,24.2512 111.257,27.5846 113.5,31.5 Z"/></g>
<g><path style="opacity:0.012" fill="#000000" d="M 89.5,22.5 C 90.8333,23.1667 90.8333,23.1667 89.5,22.5 Z"/></g>
<g><path style="opacity:0.008" fill="#8f2422" d="M 45.5,25.5 C 44.596,26.209 44.2627,27.209 44.5,28.5C 43.596,29.209 43.2627,30.209 43.5,31.5C 42.596,32.209 42.2627,33.209 42.5,34.5C 41.596,35.209 41.2627,36.209 41.5,37.5C 40.7109,37.2172 40.0442,36.7172 39.5,36C 40.8672,33.6985 41.5339,31.1985 41.5,28.5C 42.404,27.791 42.7373,26.791 42.5,25.5C 43.3149,24.5707 44.1482,23.5707 45,22.5C 45.4828,23.448 45.6495,24.448 45.5,25.5 Z"/></g>
<g><path style="opacity:0.01" fill="#000000" d="M 114.5,31.5 C 114.369,30.7611 114.536,30.0944 115,29.5C 115.692,30.4368 115.525,31.1034 114.5,31.5 Z"/></g>
<g><path style="opacity:0.006" fill="#000000" d="M 113.5,31.5 C 113.833,31.5 114.167,31.5 114.5,31.5C 114.672,32.4916 114.338,33.1583 113.5,33.5C 113.5,32.8333 113.5,32.1667 113.5,31.5 Z"/></g>
<g><path style="opacity:0.016" fill="#902a3a" d="M 84.5,25.5 C 84.2627,26.791 84.596,27.791 85.5,28.5C 85.3455,31.716 86.3455,34.3826 88.5,36.5C 88.5,36.8333 88.5,37.1667 88.5,37.5C 87.8333,38.1667 87.1667,38.8333 86.5,39.5C 86.7373,38.209 86.404,37.209 85.5,36.5C 85.7373,35.209 85.404,34.209 84.5,33.5C 84.5905,30.8478 83.9238,28.5145 82.5,26.5C 82.3668,23.075 83.0335,22.7417 84.5,25.5 Z"/></g>
<g><path style="opacity:0.01" fill="#000000" d="M 112.5,33.5 C 112.833,33.5 113.167,33.5 113.5,33.5C 113.672,34.4916 113.338,35.1583 112.5,35.5C 112.5,34.8333 112.5,34.1667 112.5,33.5 Z"/></g>
<g><path style="opacity:0.016" fill="#000000" d="M 111.5,35.5 C 111.833,35.5 112.167,35.5 112.5,35.5C 112.315,36.1701 111.981,36.1701 111.5,35.5 Z"/></g>
<g><path style="opacity:0.012" fill="#b83b33" d="M 62.5,32.5 C 63.1667,33.1667 63.8333,33.8333 64.5,34.5C 64.5,35.8333 64.5,37.1667 64.5,38.5C 63.8333,38.1667 63.1667,37.8333 62.5,37.5C 62.5,35.8333 62.5,34.1667 62.5,32.5 Z"/></g>
<g><path style="opacity:0.008" fill="#000000" d="M 110.5,36.5 C 110.833,36.5 111.167,36.5 111.5,36.5C 111.167,39.1667 110.833,39.1667 110.5,36.5 Z"/></g>
<g><path style="opacity:0.008" fill="#000000" d="M 36.5,37.5 C 38.9752,37.7467 38.9752,38.4134 36.5,39.5C 35.8933,39.3764 35.56,39.0431 35.5,38.5C 36.1667,38.5 36.5,38.1667 36.5,37.5 Z"/></g>
<g><path style="opacity:0.008" fill="#000000" d="M 88.5,37.5 C 89.1667,37.5 89.8333,37.5 90.5,37.5C 91.1667,37.5 91.5,37.8333 91.5,38.5C 90.221,39.7152 89.221,39.3818 88.5,37.5 Z"/></g>
<g><path style="opacity:0.01" fill="#000000" d="M 113.5,47.5 C 113.167,47.5 112.833,47.5 112.5,47.5C 112.833,44.8333 113.167,44.8333 113.5,47.5 Z"/></g>
<g><path style="opacity:0.01" fill="#000000" d="M 12.5,47.5 C 13.525,47.8966 13.6917,48.5632 13,49.5C 12.5357,48.9056 12.369,48.2389 12.5,47.5 Z"/></g>
<g><path style="opacity:0.01" fill="#000000" d="M 113.5,47.5 C 114.525,47.8966 114.692,48.5632 114,49.5C 113.536,48.9056 113.369,48.2389 113.5,47.5 Z"/></g>
<g><path style="opacity:0.012" fill="#000000" d="M 122.5,59.5 C 123.251,58.4265 124.251,58.2599 125.5,59C 124.552,59.4828 123.552,59.6495 122.5,59.5 Z"/></g>
<g><path style="opacity:0.004" fill="#f1201b" d="M 56.5,56.5 C 56.8333,56.5 57.1667,56.5 57.5,56.5C 57.5,57.5 57.5,58.5 57.5,59.5C 61.9707,60.0894 65.9707,59.4228 69.5,57.5C 69.8333,57.5 70.1667,57.5 70.5,57.5C 70.5,58.5 70.5,59.5 70.5,60.5C 65.8333,60.5 61.1667,60.5 56.5,60.5C 56.5,59.1667 56.5,57.8333 56.5,56.5 Z"/></g>
<g><path style="opacity:0.01" fill="#000000" d="M 122.5,75.5 C 123.552,75.3505 124.552,75.5172 125.5,76C 124.251,76.7401 123.251,76.5735 122.5,75.5 Z"/></g>
<g><path style="opacity:0.008" fill="#f4236c" d="M 50.5,79.5 C 59.2511,79.1968 67.9177,79.5301 76.5,80.5C 76.5489,85.5388 75.8823,85.7055 74.5,81C 66.8406,80.5003 59.1739,80.3336 51.5,80.5C 50.9553,84.1716 50.6219,83.8383 50.5,79.5 Z"/></g>
<g><path style="opacity:0.012" fill="#000000" d="M 12.5,82.5 C 12.631,83.2389 12.4643,83.9056 12,84.5C 11.3083,83.5632 11.475,82.8966 12.5,82.5 Z"/></g>
<g><path style="opacity:0.012" fill="#000000" d="M 114.5,82.5 C 115.525,82.8966 115.692,83.5632 115,84.5C 114.536,83.9056 114.369,83.2389 114.5,82.5 Z"/></g>
<g><path style="opacity:0.012" fill="#96312b" d="M 27.5,81.5 C 26.596,82.209 26.2627,83.209 26.5,84.5C 25.596,85.209 25.2627,86.209 25.5,87.5C 24.596,88.209 24.2627,89.209 24.5,90.5C 23.596,91.209 23.2627,92.209 23.5,93.5C 22.1667,93.5 21.5,92.8333 21.5,91.5C 22.404,90.791 22.7373,89.791 22.5,88.5C 23.404,87.791 23.7373,86.791 23.5,85.5C 24.404,84.791 24.7373,83.791 24.5,82.5C 25.5585,81.3998 26.3918,80.0664 27,78.5C 27.4828,79.448 27.6495,80.448 27.5,81.5 Z"/></g>
<g><path style="opacity:0.016" fill="#a03743" d="M 102.5,82.5 C 102.263,83.791 102.596,84.791 103.5,85.5C 103.263,86.791 103.596,87.791 104.5,88.5C 104.263,89.791 104.596,90.791 105.5,91.5C 105.328,92.4916 105.662,93.1583 106.5,93.5C 106.5,93.8333 106.5,94.1667 106.5,94.5C 105.833,94.8333 105.167,95.1667 104.5,95.5C 104.737,94.209 104.404,93.209 103.5,92.5C 103.737,91.209 103.404,90.209 102.5,89.5C 102.737,88.209 102.404,87.209 101.5,86.5C 101.737,85.209 101.404,84.209 100.5,83.5C 100.367,80.075 101.033,79.7417 102.5,82.5 Z"/></g>
<g><path style="opacity:0.01" fill="#000000" d="M 113.5,85.5 C 114.833,86.1667 114.833,86.8333 113.5,87.5C 113.5,86.8333 113.5,86.1667 113.5,85.5 Z"/></g>
<g><path style="opacity:0.01" fill="#000000" d="M 112.5,87.5 C 112.833,87.5 113.167,87.5 113.5,87.5C 113.672,88.4916 113.338,89.1583 112.5,89.5C 112.5,88.8333 112.5,88.1667 112.5,87.5 Z"/></g>
<g><path style="opacity:0.01" fill="#000000" d="M 111.5,89.5 C 111.833,89.5 112.167,89.5 112.5,89.5C 112.672,90.4916 112.338,91.1583 111.5,91.5C 111.5,90.8333 111.5,90.1667 111.5,89.5 Z"/></g>
<g><path style="opacity:0.016" fill="#000000" d="M 16.5,91.5 C 15.8333,92.1667 15.8333,92.1667 16.5,91.5 Z"/></g>
<g><path style="opacity:0.016" fill="#000000" d="M 110.5,91.5 C 110.833,91.5 111.167,91.5 111.5,91.5C 111.315,92.1701 110.981,92.1701 110.5,91.5 Z"/></g>
<g><path style="opacity:0.004" fill="#000000" d="M 17.5,93.5 C 16.8333,94.1667 16.8333,94.1667 17.5,93.5 Z"/></g>
<g><path style="opacity:0.004" fill="#000000" d="M 109.5,93.5 C 110.833,94.1667 110.833,94.1667 109.5,93.5 Z"/></g>
<g><path style="opacity:0.012" fill="#000000" d="M 18.5,95.5 C 18.8966,94.475 19.5632,94.3083 20.5,95C 19.9056,95.4643 19.2389,95.631 18.5,95.5 Z"/></g>
<g><path style="opacity:0.012" fill="#000000" d="M 106.5,94.5 C 107.239,94.369 107.906,94.5357 108.5,95C 107.563,95.6917 106.897,95.525 106.5,94.5 Z"/></g>
<g><path style="opacity:0.911" fill="#191919" d="M 103.5,95.5 C 103.833,95.5 104.167,95.5 104.5,95.5C 106.424,99.0171 108.091,102.684 109.5,106.5C 108.833,106.5 108.5,106.833 108.5,107.5C 107.833,107.5 107.5,107.833 107.5,108.5C 106.833,108.5 106.5,108.833 106.5,109.5C 105.833,109.5 105.5,109.833 105.5,110.5C 104.833,110.5 104.5,110.833 104.5,111.5C 103.833,111.5 103.5,111.833 103.5,112.5C 102.833,112.5 102.5,112.833 102.5,113.5C 101.833,113.5 101.5,113.833 101.5,114.5C 97.8106,112.903 94.3106,110.903 91,108.5C 90.0053,109.066 89.172,109.733 88.5,110.5C 87.5084,110.328 86.8417,110.662 86.5,111.5C 85.8333,111.5 85.5,111.833 85.5,112.5C 84.209,112.263 83.209,112.596 82.5,113.5C 81.5084,113.328 80.8417,113.662 80.5,114.5C 79.209,114.263 78.209,114.596 77.5,115.5C 75.901,115.232 74.5676,115.566 73.5,116.5C 71.5853,116.216 69.9187,116.549 68.5,117.5C 65.8333,117.5 63.1667,117.5 60.5,117.5C 58.3926,116.532 56.0593,116.198 53.5,116.5C 52.4324,115.566 51.099,115.232 49.5,115.5C 48.791,114.596 47.791,114.263 46.5,114.5C 43.1441,112.401 39.6441,110.401 36,108.5C 35.2828,109.044 34.7828,109.711 34.5,110.5C 33.5084,110.328 32.8417,110.662 32.5,111.5C 31.5084,111.328 30.8417,111.662 30.5,112.5C 29.8333,112.5 29.5,112.833 29.5,113.5C 28.5084,113.328 27.8417,113.662 27.5,114.5C 23.5846,112.257 20.2512,109.257 17.5,105.5C 19.2753,102.262 21.2753,99.2624 23.5,96.5C 23.9528,97.4584 24.6195,98.2917 25.5,99C 31.1569,99.4994 36.8236,99.6661 42.5,99.5C 56.5,108.833 70.5,108.833 84.5,99.5C 90.5092,99.6662 96.5092,99.4995 102.5,99C 103.337,97.9887 103.67,96.8221 103.5,95.5 Z"/></g>
<g><path style="opacity:0.006" fill="#000000" d="M 110.5,106.5 C 110.369,105.761 110.536,105.094 111,104.5C 111.692,105.437 111.525,106.103 110.5,106.5 Z"/></g>
<g><path style="opacity:0.008" fill="#000000" d="M 109.5,106.5 C 109.833,106.5 110.167,106.5 110.5,106.5C 110.315,107.17 109.981,107.17 109.5,106.5 Z"/></g>
<g><path style="opacity:0.012" fill="#000000" d="M 108.5,107.5 C 108.833,107.5 109.167,107.5 109.5,107.5C 109.315,108.17 108.981,108.17 108.5,107.5 Z"/></g>
<g><path style="opacity:0.016" fill="#000000" d="M 107.5,108.5 C 107.833,108.5 108.167,108.5 108.5,108.5C 108.315,109.17 107.981,109.17 107.5,108.5 Z"/></g>
<g><path style="opacity:0.016" fill="#000000" d="M 106.5,109.5 C 106.833,109.5 107.167,109.5 107.5,109.5C 107.315,110.17 106.981,110.17 106.5,109.5 Z"/></g>
<g><path style="opacity:0.016" fill="#000000" d="M 34.5,110.5 C 35.8333,111.167 35.8333,111.167 34.5,110.5 Z"/></g>
<g><path style="opacity:0.008" fill="#000000" d="M 88.5,111.5 C 88.5,111.167 88.5,110.833 88.5,110.5C 91.1667,110.833 91.1667,111.167 88.5,111.5 Z"/></g>
<g><path style="opacity:0.016" fill="#000000" d="M 105.5,110.5 C 105.833,110.5 106.167,110.5 106.5,110.5C 106.315,111.17 105.981,111.17 105.5,110.5 Z"/></g>
<g><path style="opacity:0.01" fill="#000000" d="M 32.5,112.5 C 32.5,112.167 32.5,111.833 32.5,111.5C 33.1667,111.5 33.8333,111.5 34.5,111.5C 34.1583,112.338 33.4916,112.672 32.5,112.5 Z"/></g>
<g><path style="opacity:0.008" fill="#000000" d="M 86.5,112.5 C 86.5,112.167 86.5,111.833 86.5,111.5C 87.1667,111.5 87.8333,111.5 88.5,111.5C 88.1583,112.338 87.4916,112.672 86.5,112.5 Z"/></g>
<g><path style="opacity:0.016" fill="#000000" d="M 104.5,111.5 C 104.833,111.5 105.167,111.5 105.5,111.5C 105.315,112.17 104.981,112.17 104.5,111.5 Z"/></g>
<g><path style="opacity:0.008" fill="#000000" d="M 30.5,113.5 C 30.5,113.167 30.5,112.833 30.5,112.5C 31.1667,112.5 31.8333,112.5 32.5,112.5C 32.1583,113.338 31.4916,113.672 30.5,113.5 Z"/></g>
<g><path style="opacity:0.012" fill="#000000" d="M 85.5,112.5 C 85.8333,112.5 86.1667,112.5 86.5,112.5C 86.3147,113.17 85.9813,113.17 85.5,112.5 Z"/></g>
<g><path style="opacity:0.016" fill="#000000" d="M 103.5,112.5 C 103.833,112.5 104.167,112.5 104.5,112.5C 104.315,113.17 103.981,113.17 103.5,112.5 Z"/></g>
<g><path style="opacity:0.016" fill="#000000" d="M 29.5,113.5 C 29.8333,113.5 30.1667,113.5 30.5,113.5C 30.3147,114.17 29.9813,114.17 29.5,113.5 Z"/></g>
<g><path style="opacity:0.008" fill="#000000" d="M 82.5,114.5 C 82.5,114.167 82.5,113.833 82.5,113.5C 85.1667,113.833 85.1667,114.167 82.5,114.5 Z"/></g>
<g><path style="opacity:0.012" fill="#000000" d="M 102.5,113.5 C 102.833,113.5 103.167,113.5 103.5,113.5C 103.315,114.17 102.981,114.17 102.5,113.5 Z"/></g>
<g><path style="opacity:0.008" fill="#000000" d="M 27.5,115.5 C 27.5,115.167 27.5,114.833 27.5,114.5C 28.1667,114.5 28.8333,114.5 29.5,114.5C 29.1583,115.338 28.4916,115.672 27.5,115.5 Z"/></g>
<g><path style="opacity:0.012" fill="#000000" d="M 46.5,114.5 C 46.1034,115.525 45.4368,115.692 44.5,115C 45.0944,114.536 45.7611,114.369 46.5,114.5 Z"/></g>
<g><path style="opacity:0.012" fill="#000000" d="M 80.5,115.5 C 80.5,115.167 80.5,114.833 80.5,114.5C 81.1667,114.5 81.8333,114.5 82.5,114.5C 82.1583,115.338 81.4916,115.672 80.5,115.5 Z"/></g>
<g><path style="opacity:0.008" fill="#000000" d="M 101.5,114.5 C 101.833,114.5 102.167,114.5 102.5,114.5C 102.315,115.17 101.981,115.17 101.5,114.5 Z"/></g>
<g><path style="opacity:0.006" fill="#000000" d="M 27.5,115.5 C 27.1034,116.525 26.4368,116.692 25.5,116C 26.0944,115.536 26.7611,115.369 27.5,115.5 Z"/></g>
<g><path style="opacity:0.012" fill="#000000" d="M 49.5,115.5 C 49.1034,116.525 48.4368,116.692 47.5,116C 48.0944,115.536 48.7611,115.369 49.5,115.5 Z"/></g>
<g><path style="opacity:0.009" fill="#000000" d="M 77.5,116.5 C 77.5,116.167 77.5,115.833 77.5,115.5C 78.5,115.5 79.5,115.5 80.5,115.5C 79.791,116.404 78.791,116.737 77.5,116.5 Z"/></g>
<g><path style="opacity:0.006" fill="#000000" d="M 101.5,115.5 C 101.103,116.525 100.437,116.692 99.5,116C 100.094,115.536 100.761,115.369 101.5,115.5 Z"/></g>
<g><path style="opacity:0.012" fill="#000000" d="M 53.5,116.5 C 52.7494,117.573 51.7494,117.74 50.5,117C 51.448,116.517 52.448,116.351 53.5,116.5 Z"/></g>
<g><path style="opacity:0.009" fill="#000000" d="M 73.5,117.5 C 73.5,117.167 73.5,116.833 73.5,116.5C 74.8333,116.5 76.1667,116.5 77.5,116.5C 76.4324,117.434 75.099,117.768 73.5,117.5 Z"/></g>
<g><path style="opacity:0.01" fill="#000000" d="M 60.5,117.5 C 58.7116,118.622 56.7116,118.789 54.5,118C 56.4727,117.505 58.4727,117.338 60.5,117.5 Z"/></g>
<g><path style="opacity:0.01" fill="#000000" d="M 68.5,117.5 C 70.1667,117.5 71.8333,117.5 73.5,117.5C 71.8333,118.833 70.1667,118.833 68.5,117.5 Z"/></g>
<g><path style="opacity:0.004" fill="#000000" d="M 61.5,119.5 C 63.2884,118.378 65.2884,118.211 67.5,119C 65.5273,119.495 63.5273,119.662 61.5,119.5 Z"/></g>
</svg>
